<?xml version="1.0" encoding="utf-8"?>
<!-- Generator: Adobe Illustrator 25.2.1, SVG Export Plug-In . SVG Version: 6.00 Build 0)  -->
<svg version="1.1" id="图层_1" xmlns="http://www.w3.org/2000/svg" xmlns:xlink="http://www.w3.org/1999/xlink" x="0px" y="0px"
	 viewBox="0 0 859.5 285.9" style="enable-background:new 0 0 859.5 285.9;" xml:space="preserve">
<style type="text/css">
	.st0{fill:#FFFFFF;stroke:#FFFFFF;stroke-miterlimit:10;}
	.st1{fill:#F4C406;stroke:#F4C406;stroke-miterlimit:10;}
	.st2{enable-background:new    ;}
	.st3{fill:#FFFFFF;}
	.st4{fill:none;stroke:#FFFFFF;stroke-miterlimit:10;}
</style>
<path class="st0" d="M61.6,49.1h122.3c3.8,0.1,7.5,0.7,11.2,1.8c4.5,1.3,8.7,3.3,12.5,6.1c4.2,3,7.8,6.8,10.5,11.2
	c3,4.6,4.8,10.3,5.4,17.1l19.1,188h-83l-3.2-32.2H92.9L84,273.2H0.7L61.6,49.1z M127.7,113.6l-18.5,67.7h41.2l-7-68.6
	c-0.3-1-1-1.9-1.9-2.5c-1.2-0.9-2.7-1.3-4.1-1.3H97.4c-1.2-0.1-2.4,0.1-3.5,0.6c-0.6,0.4-1.1,0.8-1.6,1.3c-0.2,0.4-0.4,0.8-0.5,1.3
	c-0.2,0.6-0.5,1.1-0.8,1.6L127.7,113.6z"/>
<path class="st0" d="M329,105.1l-0.9,4.1c-0.1,0.8-0.4,2.2-0.8,4.5s-0.8,4.9-1.4,7.9s-1.1,6.4-1.7,10s-1.2,7.4-1.8,11.2
	c-0.6,3.9-1.2,7.6-1.9,11.2c-0.7,3.5-1.2,6.7-1.7,9.5s-0.8,5-1.1,6.7s-0.5,2.6-0.5,2.7c0,1,0.7,1.8,1.6,2.1c0.8,0.5,1.8,0.7,2.7,0.8
	h88.3l-7.2,42.2H281.5c-2.8-0.1-5.5-0.6-8.1-1.5c-3.3-1-6.4-2.6-9.1-4.7c-3.1-2.4-5.7-5.4-7.6-8.8c-2.2-4.2-3.3-8.9-3.2-13.7
	c0-0.8,0-1.7,0.1-2.5c0.1-0.8,0.2-1.7,0.3-2.5l17.2-101.2c1-7.5,5.2-14.3,11.5-18.5c2.6-1.8,5.4-3.1,8.4-4c2.5-0.8,5.1-1.2,7.7-1.2
	h130.8l-7,42.2H307.3c-1-0.1-1.9,0.2-2.7,0.7c-0.8,0.7-1.3,1.7-1.6,2.7L329,105.1z"/>
<path class="st0" d="M438,189.4c0-0.8,0-1.7,0.1-2.5c0.1-0.8,0.2-1.7,0.3-2.5l17.2-101.2c0.6-4,2-7.9,4.3-11.3
	c1.9-2.8,4.4-5.3,7.2-7.2c2.6-1.8,5.4-3.1,8.4-4c2.5-0.8,5.1-1.2,7.6-1.2H627l-7.2,42.2h-128c-1-0.1-2,0.2-2.8,0.7
	c-0.8,0.7-1.3,1.7-1.5,2.7h26l-12.2,70.7h44.5l3.8-18.5h-26.5l7.7-42.2H618l-14,79.3c-1,7.5-5.2,14.3-11.5,18.5
	c-2.6,1.7-5.4,3.1-8.4,4c-2.5,0.8-5.1,1.2-7.7,1.2H466c-2.8-0.1-5.5-0.6-8.1-1.5c-3.3-1-6.4-2.6-9.1-4.7c-3.1-2.4-5.7-5.4-7.6-8.8
	C439,198.8,437.9,194.1,438,189.4z"/>
<path class="st0" d="M633.6,175.8h77.2c1.9,0.1,3.6-1,4.3-2.7c0.1-0.6,0.3-1.3,0.5-2.1s0.4-1.8,0.7-2.8c0.1-0.6,0.3-1.2,0.5-1.9
	c0.1-0.6,0.2-1.3,0.2-1.9c-0.1-0.5-0.3-1-0.6-1.4c-0.5-0.7-1.1-1.1-1.9-1.4L662.5,142c-2-0.9-4-1.9-5.9-3.2
	c-2.2-1.5-4.2-3.3-5.9-5.4c-1.9-2.4-3.4-5.1-4.5-7.9c-1.3-3.3-1.9-6.8-1.8-10.4c0-2.4,0.2-4.8,0.6-7.2c0.4-3,0.9-6,1.5-9
	c0.6-3,1.2-5.9,1.7-8.8c0.5-2.9,0.9-5.1,1.2-6.8c1-7.5,5.2-14.3,11.5-18.5c2.6-1.7,5.4-3.1,8.4-4c2.5-0.8,5.1-1.2,7.7-1.2h120.4
	l-7.2,42.2H686.7c-1-0.1-1.9,0.2-2.7,0.7c-0.8,0.7-1.3,1.7-1.6,2.7h25.1l0.2,3.2c0,1.1,0.8,1.9,2.3,2.5l51.7,19.9
	c2.1,0.7,4.1,1.7,5.9,3c2.2,1.5,4.2,3.4,5.9,5.5c1.9,2.4,3.4,5.1,4.5,7.9c1.3,3.3,1.9,6.8,1.8,10.4c-0.1,2.6-0.3,5.1-0.7,7.7
	c-0.5,3.5-1.1,7-1.8,10.6c-0.6,3.6-1.2,7.1-1.7,10.5c-0.5,3.4-1,6-1.2,7.8c-0.6,4.1-2,8-4.3,11.4c-1.9,2.9-4.4,5.4-7.2,7.3
	c-2.6,1.8-5.5,3.1-8.5,4c-2.5,0.8-5.2,1.2-7.8,1.2H626.4L633.6,175.8z"/>
<path class="st1" d="M858.9,66.1l-1,0.5c-18.1-6-41.5,5.8-56.6,28.5l-1,0.5v-0.4c11.2-25.3,8.4-51.8-6.8-63.7l-0.1-1.1
	c18.6,6.9,43.2-5.5,58.5-29.5l0,0l0.1,0.7c-11.6,25.6-8.7,52.5,6.9,64.4L858.9,66.1z"/>
<g class="st2">
	<path class="st3" d="M342.6,263h18.6c0.3,0,0.5-0.1,0.7-0.2c0.2-0.1,0.3-0.3,0.4-0.5c0-0.1,0.1-0.3,0.1-0.5c0-0.2,0.1-0.4,0.2-0.7
		c0-0.1,0.1-0.3,0.1-0.5c0-0.2,0.1-0.3,0.1-0.5c0-0.1,0-0.2-0.1-0.3c-0.1-0.1-0.2-0.3-0.5-0.3l-12.5-4.7c-0.4-0.2-0.9-0.4-1.4-0.8
		c-0.5-0.3-1-0.8-1.4-1.3c-0.4-0.5-0.8-1.2-1.1-1.9c-0.3-0.7-0.4-1.6-0.4-2.5c0-0.4,0-1,0.1-1.7c0.1-0.7,0.2-1.5,0.4-2.2
		c0.1-0.7,0.3-1.4,0.4-2.1c0.1-0.7,0.2-1.2,0.3-1.6c0.2-1.1,0.5-2,1-2.7c0.5-0.7,1.1-1.3,1.7-1.7s1.3-0.8,2-1
		c0.7-0.2,1.3-0.3,1.9-0.3h29l-1.7,10.2h-24.9c-0.3,0-0.5,0.1-0.7,0.2c-0.1,0.1-0.3,0.3-0.4,0.7h6l0.1,0.8c0,0.3,0.2,0.5,0.5,0.6
		l12.5,4.8c0.4,0.1,0.9,0.4,1.4,0.7c0.5,0.3,1,0.8,1.4,1.3c0.4,0.5,0.8,1.2,1.1,1.9c0.3,0.7,0.4,1.6,0.4,2.5c0,0.4-0.1,1-0.2,1.9
		s-0.3,1.7-0.4,2.6c-0.1,0.9-0.3,1.7-0.4,2.5c-0.1,0.8-0.2,1.4-0.3,1.9c-0.2,1.1-0.5,2-1,2.8c-0.5,0.7-1.1,1.3-1.7,1.8s-1.3,0.8-2,1
		c-0.7,0.2-1.3,0.3-1.9,0.3h-29L342.6,263z"/>
</g>
<g class="st2">
	<path class="st4" d="M342.6,263h18.6c0.3,0,0.5-0.1,0.7-0.2c0.2-0.1,0.3-0.3,0.4-0.5c0-0.1,0.1-0.3,0.1-0.5c0-0.2,0.1-0.4,0.2-0.7
		c0-0.1,0.1-0.3,0.1-0.5c0-0.2,0.1-0.3,0.1-0.5c0-0.1,0-0.2-0.1-0.3c-0.1-0.1-0.2-0.3-0.5-0.3l-12.5-4.7c-0.4-0.2-0.9-0.4-1.4-0.8
		c-0.5-0.3-1-0.8-1.4-1.3c-0.4-0.5-0.8-1.2-1.1-1.9c-0.3-0.7-0.4-1.6-0.4-2.5c0-0.4,0-1,0.1-1.7c0.1-0.7,0.2-1.5,0.4-2.2
		c0.1-0.7,0.3-1.4,0.4-2.1c0.1-0.7,0.2-1.2,0.3-1.6c0.2-1.1,0.5-2,1-2.7c0.5-0.7,1.1-1.3,1.7-1.7s1.3-0.8,2-1
		c0.7-0.2,1.3-0.3,1.9-0.3h29l-1.7,10.2h-24.9c-0.3,0-0.5,0.1-0.7,0.2c-0.1,0.1-0.3,0.3-0.4,0.7h6l0.1,0.8c0,0.3,0.2,0.5,0.5,0.6
		l12.5,4.8c0.4,0.1,0.9,0.4,1.4,0.7c0.5,0.3,1,0.8,1.4,1.3c0.4,0.5,0.8,1.2,1.1,1.9c0.3,0.7,0.4,1.6,0.4,2.5c0,0.4-0.1,1-0.2,1.9
		s-0.3,1.7-0.4,2.6c-0.1,0.9-0.3,1.7-0.4,2.5c-0.1,0.8-0.2,1.4-0.3,1.9c-0.2,1.1-0.5,2-1,2.8c-0.5,0.7-1.1,1.3-1.7,1.8s-1.3,0.8-2,1
		c-0.7,0.2-1.3,0.3-1.9,0.3h-29L342.6,263z"/>
</g>
<g class="st2">
	<path class="st3" d="M399.1,234.9l3.4,15.8h0.6l9-15.8h15.1l-11.1,20.6c-0.4,0.8-0.9,1.4-1.5,1.9c-0.6,0.5-1.1,0.8-1.7,1.1
		c-0.6,0.2-1.2,0.4-1.8,0.5c-0.6,0.1-1.2,0.1-1.8,0.1l-2.4,14.1h-14.8l2.4-14.2c-0.6-0.1-1.2-0.2-1.9-0.4c-0.7-0.2-1.3-0.5-1.9-1
		s-1.1-1-1.6-1.6c-0.5-0.7-0.8-1.4-1-2.3l-3.9-18.7H399.1z"/>
</g>
<g class="st2">
	<path class="st4" d="M399.1,234.9l3.4,15.8h0.6l9-15.8h15.1l-11.1,20.6c-0.4,0.8-0.9,1.4-1.5,1.9c-0.6,0.5-1.1,0.8-1.7,1.1
		c-0.6,0.2-1.2,0.4-1.8,0.5c-0.6,0.1-1.2,0.1-1.8,0.1l-2.4,14.1h-14.8l2.4-14.2c-0.6-0.1-1.2-0.2-1.9-0.4c-0.7-0.2-1.3-0.5-1.9-1
		s-1.1-1-1.6-1.6c-0.5-0.7-0.8-1.4-1-2.3l-3.9-18.7H399.1z"/>
</g>
<g class="st2">
	<path class="st3" d="M430.4,234.9h34.2c0.5,0,1.2,0.1,2,0.4c0.8,0.2,1.5,0.6,2.2,1.1c0.7,0.5,1.3,1.2,1.8,2.1s0.7,2,0.7,3.3
		c0,0.2,0,0.4,0,0.6c0,0.2,0,0.4-0.1,0.6l-5.1,30.1h-14.8l0.2-1c0.1-0.3,0.2-0.9,0.4-1.7c0.2-0.9,0.4-1.9,0.6-3.2s0.5-2.7,0.7-4.2
		s0.5-3.1,0.8-4.7c0.3-1.6,0.6-3.1,0.8-4.6c0.3-1.5,0.5-2.8,0.7-3.9s0.4-2.1,0.5-2.8c0.1-0.7,0.2-1.1,0.2-1.1c0-0.2-0.1-0.4-0.4-0.5
		c-0.3-0.1-0.5-0.2-0.7-0.2h-11.4l-4.8,28H424L430.4,234.9z"/>
</g>
<g class="st2">
	<path class="st4" d="M430.4,234.9h34.2c0.5,0,1.2,0.1,2,0.4c0.8,0.2,1.5,0.6,2.2,1.1c0.7,0.5,1.3,1.2,1.8,2.1s0.7,2,0.7,3.3
		c0,0.2,0,0.4,0,0.6c0,0.2,0,0.4-0.1,0.6l-5.1,30.1h-14.8l0.2-1c0.1-0.3,0.2-0.9,0.4-1.7c0.2-0.9,0.4-1.9,0.6-3.2s0.5-2.7,0.7-4.2
		s0.5-3.1,0.8-4.7c0.3-1.6,0.6-3.1,0.8-4.6c0.3-1.5,0.5-2.8,0.7-3.9s0.4-2.1,0.5-2.8c0.1-0.7,0.2-1.1,0.2-1.1c0-0.2-0.1-0.4-0.4-0.5
		c-0.3-0.1-0.5-0.2-0.7-0.2h-11.4l-4.8,28H424L430.4,234.9z"/>
</g>
<g class="st2">
	<path class="st3" d="M508.4,273.2h-29.2c-0.5,0-1.2-0.1-2-0.4s-1.5-0.6-2.2-1.1c-0.7-0.5-1.3-1.2-1.8-2.1c-0.5-0.9-0.8-2-0.8-3.3
		c0-0.2,0-0.4,0-0.6s0-0.4,0.1-0.6l4.1-24.4c0.2-1.1,0.5-2,1-2.7c0.5-0.7,1.1-1.3,1.7-1.7c0.7-0.4,1.3-0.8,2-1
		c0.7-0.2,1.3-0.3,1.9-0.3h31.5l-1.7,10.2h-21.5c-0.3,0-0.5,0.1-0.7,0.2c-0.2,0.1-0.3,0.3-0.3,0.5c0,0.2-0.1,0.6-0.2,1.1
		c-0.1,0.6-0.2,1.2-0.4,2c-0.1,0.8-0.3,1.7-0.5,2.6c-0.2,1-0.3,1.9-0.5,2.9c-0.1,1-0.3,2-0.5,2.9s-0.3,1.7-0.4,2.5
		c-0.1,0.7-0.2,1.3-0.3,1.7c-0.1,0.4-0.1,0.7-0.1,0.7c0,0.2,0.1,0.4,0.4,0.5c0.3,0.1,0.5,0.2,0.7,0.2h21.3L508.4,273.2z"/>
</g>
<g class="st2">
	<path class="st4" d="M508.4,273.2h-29.2c-0.5,0-1.2-0.1-2-0.4s-1.5-0.6-2.2-1.1c-0.7-0.5-1.3-1.2-1.8-2.1c-0.5-0.9-0.8-2-0.8-3.3
		c0-0.2,0-0.4,0-0.6s0-0.4,0.1-0.6l4.1-24.4c0.2-1.1,0.5-2,1-2.7c0.5-0.7,1.1-1.3,1.7-1.7c0.7-0.4,1.3-0.8,2-1
		c0.7-0.2,1.3-0.3,1.9-0.3h31.5l-1.7,10.2h-21.5c-0.3,0-0.5,0.1-0.7,0.2c-0.2,0.1-0.3,0.3-0.3,0.5c0,0.2-0.1,0.6-0.2,1.1
		c-0.1,0.6-0.2,1.2-0.4,2c-0.1,0.8-0.3,1.7-0.5,2.6c-0.2,1-0.3,1.9-0.5,2.9c-0.1,1-0.3,2-0.5,2.9s-0.3,1.7-0.4,2.5
		c-0.1,0.7-0.2,1.3-0.3,1.7c-0.1,0.4-0.1,0.7-0.1,0.7c0,0.2,0.1,0.4,0.4,0.5c0.3,0.1,0.5,0.2,0.7,0.2h21.3L508.4,273.2z"/>
</g>
<g class="st2">
	<path class="st3" d="M521.4,234.9h15.1l-2.3,13.4H545l2.3-13.4h15.1l-6.5,38.2h-15.1l2.5-14.6h-10.7l-2.5,14.6H515L521.4,234.9z"/>
</g>
<g class="st2">
	<path class="st4" d="M521.4,234.9h15.1l-2.3,13.4H545l2.3-13.4h15.1l-6.5,38.2h-15.1l2.5-14.6h-10.7l-2.5,14.6H515L521.4,234.9z"/>
</g>
<g class="st2">
	<path class="st3" d="M563.5,273.2l6.5-38.2h31.7c0.5,0,1.2,0.1,2,0.4c0.8,0.2,1.5,0.6,2.2,1.1c0.7,0.5,1.3,1.2,1.8,2.1
		s0.7,2,0.7,3.3c0,0.2,0,0.4,0,0.6s0,0.4-0.1,0.6l-2.4,14.1c-0.1,1-0.4,1.8-0.9,2.5c-0.4,0.7-0.9,1.3-1.5,1.7s-1.2,0.8-1.8,1
		c-0.6,0.2-1.2,0.4-1.8,0.5l2.1,10.4h-13.6l-2.1-10.3h-6.3l-1.7,10.3H563.5z M591,252.6c0.3,0,0.5-0.1,0.7-0.2
		c0.2-0.1,0.3-0.3,0.3-0.4c0-0.2,0.1-0.6,0.2-1.3c0.1-0.6,0.2-1.3,0.3-2c0.2-0.7,0.3-1.4,0.3-2c0-0.1,0.1-0.3,0.1-0.4
		c0-0.1,0-0.2,0-0.3c0,0,0.1-0.1,0.1-0.1v-0.1c0-0.2-0.1-0.4-0.4-0.5c-0.3-0.1-0.5-0.2-0.7-0.2h-8.9l-1.3,7.5H591z"/>
</g>
<g class="st2">
	<path class="st4" d="M563.5,273.2l6.5-38.2h31.7c0.5,0,1.2,0.1,2,0.4c0.8,0.2,1.5,0.6,2.2,1.1c0.7,0.5,1.3,1.2,1.8,2.1
		s0.7,2,0.7,3.3c0,0.2,0,0.4,0,0.6s0,0.4-0.1,0.6l-2.4,14.1c-0.1,1-0.4,1.8-0.9,2.5c-0.4,0.7-0.9,1.3-1.5,1.7s-1.2,0.8-1.8,1
		c-0.6,0.2-1.2,0.4-1.8,0.5l2.1,10.4h-13.6l-2.1-10.3h-6.3l-1.7,10.3H563.5z M591,252.6c0.3,0,0.5-0.1,0.7-0.2
		c0.2-0.1,0.3-0.3,0.3-0.4c0-0.2,0.1-0.6,0.2-1.3c0.1-0.6,0.2-1.3,0.3-2c0.2-0.7,0.3-1.4,0.3-2c0-0.1,0.1-0.3,0.1-0.4
		c0-0.1,0-0.2,0-0.3c0,0,0.1-0.1,0.1-0.1v-0.1c0-0.2-0.1-0.4-0.4-0.5c-0.3-0.1-0.5-0.2-0.7-0.2h-8.9l-1.3,7.5H591z"/>
</g>
<g class="st2">
	<path class="st3" d="M650,234.9c0.5,0,1.2,0.1,2,0.4c0.8,0.2,1.5,0.6,2.2,1.1c0.7,0.5,1.3,1.2,1.8,2.1s0.7,2,0.7,3.3
		c0,0.2,0,0.4,0,0.6s0,0.4-0.1,0.6l-4.2,24.4c-0.2,1.1-0.5,2-1,2.7c-0.5,0.7-1.1,1.3-1.7,1.7s-1.3,0.8-2,1c-0.7,0.2-1.3,0.3-1.9,0.3
		h-28.5c-0.5,0-1.2-0.1-2-0.4s-1.5-0.6-2.2-1.1c-0.7-0.5-1.3-1.2-1.8-2.1c-0.5-0.9-0.8-2-0.8-3.3c0-0.2,0-0.4,0-0.6s0-0.4,0.1-0.6
		l4.1-24.4c0.2-1.1,0.5-2,1-2.7c0.5-0.7,1.1-1.3,1.7-1.7c0.7-0.4,1.3-0.8,2-1c0.7-0.2,1.3-0.3,1.9-0.3H650z M628.4,245.8
		c0,0.2-0.1,0.6-0.2,1.1c-0.1,0.6-0.2,1.2-0.3,2c-0.1,0.8-0.3,1.7-0.4,2.6c-0.2,1-0.3,1.9-0.5,2.9c-0.1,1-0.3,2-0.5,2.9
		c-0.2,0.9-0.3,1.7-0.4,2.5c-0.1,0.7-0.2,1.3-0.3,1.7c-0.1,0.4-0.1,0.7-0.1,0.7c0,0.1,0,0.1,0,0.2c0,0.1,0.1,0.1,0.2,0.2
		c0.1,0.1,0.2,0.2,0.4,0.2c0.1,0,0.3,0.1,0.3,0.1H638c0.3,0,0.5-0.1,0.7-0.2c0.2-0.1,0.3-0.3,0.3-0.5c0-0.2,0.1-0.6,0.2-1.1
		c0.1-0.6,0.2-1.2,0.4-2c0.1-0.8,0.3-1.7,0.5-2.6c0.2-1,0.3-1.9,0.5-2.9c0.2-1,0.4-2,0.5-2.9c0.2-0.9,0.3-1.7,0.4-2.5
		c0.1-0.7,0.2-1.3,0.3-1.7c0.1-0.4,0.1-0.7,0.1-0.7c0-0.1-0.1-0.3-0.3-0.4c-0.1-0.1-0.2-0.2-0.4-0.2c-0.1,0-0.3-0.1-0.4-0.1h-11.3
		c-0.3,0-0.5,0.1-0.7,0.2C628.6,245.4,628.4,245.6,628.4,245.8z"/>
	<path class="st3" d="M664.4,234.9h34.2c0.5,0,1.2,0.1,2,0.4c0.8,0.2,1.5,0.6,2.2,1.1c0.7,0.5,1.3,1.2,1.8,2.1s0.7,2,0.7,3.3
		c0,0.2,0,0.4,0,0.6c0,0.2,0,0.4-0.1,0.6l-5.1,30.1h-14.8l0.2-1c0.1-0.3,0.2-0.9,0.4-1.7c0.2-0.9,0.4-1.9,0.6-3.2s0.5-2.7,0.7-4.2
		s0.5-3.1,0.8-4.7c0.3-1.6,0.6-3.1,0.8-4.6c0.3-1.5,0.5-2.8,0.7-3.9s0.4-2.1,0.5-2.8c0.1-0.7,0.2-1.1,0.2-1.1c0-0.2-0.1-0.4-0.4-0.5
		c-0.3-0.1-0.5-0.2-0.7-0.2h-11.4l-4.8,28h-14.8L664.4,234.9z"/>
	<path class="st3" d="M728.9,234.9l-6.5,38.2H707l6.5-38.2H728.9z"/>
	<path class="st3" d="M767.1,263l-1.7,10.2h-34.7l1.8-10.5l19.4-17.5h-16.4l1.7-10.2h34.7l-1.8,10.5L750.7,263H767.1z"/>
</g>
<g class="st2">
	<path class="st4" d="M650,234.9c0.5,0,1.2,0.1,2,0.4c0.8,0.2,1.5,0.6,2.2,1.1c0.7,0.5,1.3,1.2,1.8,2.1s0.7,2,0.7,3.3
		c0,0.2,0,0.4,0,0.6s0,0.4-0.1,0.6l-4.2,24.4c-0.2,1.1-0.5,2-1,2.7c-0.5,0.7-1.1,1.3-1.7,1.7s-1.3,0.8-2,1c-0.7,0.2-1.3,0.3-1.9,0.3
		h-28.5c-0.5,0-1.2-0.1-2-0.4s-1.5-0.6-2.2-1.1c-0.7-0.5-1.3-1.2-1.8-2.1c-0.5-0.9-0.8-2-0.8-3.3c0-0.2,0-0.4,0-0.6s0-0.4,0.1-0.6
		l4.1-24.4c0.2-1.1,0.5-2,1-2.7c0.5-0.7,1.1-1.3,1.7-1.7c0.7-0.4,1.3-0.8,2-1c0.7-0.2,1.3-0.3,1.9-0.3H650z M628.4,245.8
		c0,0.2-0.1,0.6-0.2,1.1c-0.1,0.6-0.2,1.2-0.3,2c-0.1,0.8-0.3,1.7-0.4,2.6c-0.2,1-0.3,1.9-0.5,2.9c-0.1,1-0.3,2-0.5,2.9
		c-0.2,0.9-0.3,1.7-0.4,2.5c-0.1,0.7-0.2,1.3-0.3,1.7c-0.1,0.4-0.1,0.7-0.1,0.7c0,0.1,0,0.1,0,0.2c0,0.1,0.1,0.1,0.2,0.2
		c0.1,0.1,0.2,0.2,0.4,0.2c0.1,0,0.3,0.1,0.3,0.1H638c0.3,0,0.5-0.1,0.7-0.2c0.2-0.1,0.3-0.3,0.3-0.5c0-0.2,0.1-0.6,0.2-1.1
		c0.1-0.6,0.2-1.2,0.4-2c0.1-0.8,0.3-1.7,0.5-2.6c0.2-1,0.3-1.9,0.5-2.9c0.2-1,0.4-2,0.5-2.9c0.2-0.9,0.3-1.7,0.4-2.5
		c0.1-0.7,0.2-1.3,0.3-1.7c0.1-0.4,0.1-0.7,0.1-0.7c0-0.1-0.1-0.3-0.3-0.4c-0.1-0.1-0.2-0.2-0.4-0.2c-0.1,0-0.3-0.1-0.4-0.1h-11.3
		c-0.3,0-0.5,0.1-0.7,0.2C628.6,245.4,628.4,245.6,628.4,245.8z"/>
	<path class="st4" d="M664.4,234.9h34.2c0.5,0,1.2,0.1,2,0.4c0.8,0.2,1.5,0.6,2.2,1.1c0.7,0.5,1.3,1.2,1.8,2.1s0.7,2,0.7,3.3
		c0,0.2,0,0.4,0,0.6c0,0.2,0,0.4-0.1,0.6l-5.1,30.1h-14.8l0.2-1c0.1-0.3,0.2-0.9,0.4-1.7c0.2-0.9,0.4-1.9,0.6-3.2s0.5-2.7,0.7-4.2
		s0.5-3.1,0.8-4.7c0.3-1.6,0.6-3.1,0.8-4.6c0.3-1.5,0.5-2.8,0.7-3.9s0.4-2.1,0.5-2.8c0.1-0.7,0.2-1.1,0.2-1.1c0-0.2-0.1-0.4-0.4-0.5
		c-0.3-0.1-0.5-0.2-0.7-0.2h-11.4l-4.8,28h-14.8L664.4,234.9z"/>
	<path class="st4" d="M728.9,234.9l-6.5,38.2H707l6.5-38.2H728.9z"/>
	<path class="st4" d="M767.1,263l-1.7,10.2h-34.7l1.8-10.5l19.4-17.5h-16.4l1.7-10.2h34.7l-1.8,10.5L750.7,263H767.1z"/>
</g>
<g class="st2">
	<path class="st3" d="M788.9,258.5c-0.1,0.3-0.1,0.5-0.2,0.8c0,0.3-0.1,0.6-0.2,0.9c0,0.3-0.1,0.5-0.1,0.7c0,0.2-0.1,0.4-0.1,0.6
		c0,0.1,0,0.2,0,0.4c0,0.2,0,0.3-0.1,0.3c0,0.2,0.1,0.4,0.4,0.5c0.3,0.1,0.5,0.2,0.7,0.2h20l-1.7,10.2h-27.9c-0.5,0-1.2-0.1-2-0.4
		c-0.8-0.2-1.5-0.6-2.2-1.1c-0.7-0.5-1.3-1.2-1.8-2.1c-0.5-0.9-0.8-2-0.8-3.3c0-0.2,0-0.4,0-0.6c0-0.2,0-0.4,0.1-0.6l4.1-24.4
		c0.2-1.1,0.5-2,1-2.7s1.1-1.3,1.7-1.7s1.3-0.8,2-1c0.7-0.2,1.3-0.3,1.9-0.3h30.3l-1.7,10.2h-20.3c-0.3,0-0.5,0.1-0.7,0.2
		c-0.2,0.1-0.3,0.3-0.3,0.5l-0.4,2.6h17.5l-1.9,10.2H788.9z"/>
</g>
<g class="st2">
	<path class="st4" d="M788.9,258.5c-0.1,0.3-0.1,0.5-0.2,0.8c0,0.3-0.1,0.6-0.2,0.9c0,0.3-0.1,0.5-0.1,0.7c0,0.2-0.1,0.4-0.1,0.6
		c0,0.1,0,0.2,0,0.4c0,0.2,0,0.3-0.1,0.3c0,0.2,0.1,0.4,0.4,0.5c0.3,0.1,0.5,0.2,0.7,0.2h20l-1.7,10.2h-27.9c-0.5,0-1.2-0.1-2-0.4
		c-0.8-0.2-1.5-0.6-2.2-1.1c-0.7-0.5-1.3-1.2-1.8-2.1c-0.5-0.9-0.8-2-0.8-3.3c0-0.2,0-0.4,0-0.6c0-0.2,0-0.4,0.1-0.6l4.1-24.4
		c0.2-1.1,0.5-2,1-2.7s1.1-1.3,1.7-1.7s1.3-0.8,2-1c0.7-0.2,1.3-0.3,1.9-0.3h30.3l-1.7,10.2h-20.3c-0.3,0-0.5,0.1-0.7,0.2
		c-0.2,0.1-0.3,0.3-0.3,0.5l-0.4,2.6h17.5l-1.9,10.2H788.9z"/>
</g>
<g class="st2">
	<path class="st3" d="M813,273.2l6.5-38.2h31.7c0.5,0,1.2,0.1,2,0.4c0.8,0.2,1.5,0.6,2.2,1.1c0.7,0.5,1.3,1.2,1.8,2.1s0.7,2,0.7,3.3
		c0,0.2,0,0.4,0,0.6s0,0.4-0.1,0.6l-2.4,14.1c-0.1,1-0.4,1.8-0.9,2.5c-0.4,0.7-0.9,1.3-1.5,1.7c-0.6,0.4-1.2,0.8-1.8,1
		c-0.6,0.2-1.2,0.4-1.8,0.5l2.1,10.4H838l-2.1-10.3h-6.3l-1.7,10.3H813z M840.5,252.6c0.3,0,0.5-0.1,0.7-0.2
		c0.2-0.1,0.3-0.3,0.3-0.4c0-0.2,0.1-0.6,0.2-1.3c0.1-0.6,0.2-1.3,0.3-2c0.2-0.7,0.3-1.4,0.3-2c0-0.1,0.1-0.3,0.1-0.4
		c0-0.1,0-0.2,0-0.3c0,0,0.1-0.1,0.1-0.1v-0.1c0-0.2-0.1-0.4-0.4-0.5c-0.3-0.1-0.5-0.2-0.7-0.2h-8.9l-1.3,7.5H840.5z"/>
</g>
<g class="st2">
	<path class="st4" d="M813,273.2l6.5-38.2h31.7c0.5,0,1.2,0.1,2,0.4c0.8,0.2,1.5,0.6,2.2,1.1c0.7,0.5,1.3,1.2,1.8,2.1s0.7,2,0.7,3.3
		c0,0.2,0,0.4,0,0.6s0,0.4-0.1,0.6l-2.4,14.1c-0.1,1-0.4,1.8-0.9,2.5c-0.4,0.7-0.9,1.3-1.5,1.7c-0.6,0.4-1.2,0.8-1.8,1
		c-0.6,0.2-1.2,0.4-1.8,0.5l2.1,10.4H838l-2.1-10.3h-6.3l-1.7,10.3H813z M840.5,252.6c0.3,0,0.5-0.1,0.7-0.2
		c0.2-0.1,0.3-0.3,0.3-0.4c0-0.2,0.1-0.6,0.2-1.3c0.1-0.6,0.2-1.3,0.3-2c0.2-0.7,0.3-1.4,0.3-2c0-0.1,0.1-0.3,0.1-0.4
		c0-0.1,0-0.2,0-0.3c0,0,0.1-0.1,0.1-0.1v-0.1c0-0.2-0.1-0.4-0.4-0.5c-0.3-0.1-0.5-0.2-0.7-0.2h-8.9l-1.3,7.5H840.5z"/>
</g>
</svg>
